<?xml version="1.0" encoding="UTF-8" standalone="no"?>
<svg
   width="550"
   height="630"
   fill="none"
   version="1.1"
   id="svg2"
   sodipodi:docname="lortry13-optimized.svg"
   inkscape:version="1.3.2 (091e20e, 2023-11-25, custom)"
   xml:space="preserve"
   inkscape:export-filename="lortry13-optismizesd.svg"
   inkscape:export-xdpi="16.457144"
   inkscape:export-ydpi="16.457144"
   xmlns:inkscape="http://www.inkscape.org/namespaces/inkscape"
   xmlns:sodipodi="http://sodipodi.sourceforge.net/DTD/sodipodi-0.dtd"
   xmlns="http://www.w3.org/2000/svg"
   xmlns:svg="http://www.w3.org/2000/svg"><defs
     id="defs2"><inkscape:path-effect
       effect="tiling"
       id="path-effect355"
       is_visible="true"
       lpeversion="1"
       unit="px"
       seed="1;1"
       lpesatellites=""
       num_rows="3"
       num_cols="63"
       gapx="1"
       gapy="0"
       offset="0"
       offset_type="false"
       scale="0"
       rotate="0"
       mirrorrowsx="false"
       mirrorrowsy="false"
       mirrorcolsx="false"
       mirrorcolsy="false"
       mirrortrans="false"
       shrink_interp="false"
       split_items="false"
       link_styles="false"
       interpolate_scalex="false"
       interpolate_scaley="true"
       interpolate_rotatex="false"
       interpolate_rotatey="true"
       random_scale="false"
       random_rotate="false"
       random_gap_y="false"
       random_gap_x="false"
       transformorigin="" /><inkscape:path-effect
       effect="fill_between_many"
       method="originald"
       linkedpaths="#path1,0,1|"
       id="path-effect2" /><inkscape:path-effect
       effect="fill_between_many"
       method="originald"
       linkedpaths="#path1,0,1|"
       id="path-effect153" /></defs><sodipodi:namedview
     id="namedview2"
     pagecolor="#ffffff"
     bordercolor="#666666"
     borderopacity="1.0"
     inkscape:showpageshadow="2"
     inkscape:pageopacity="0.0"
     inkscape:pagecheckerboard="0"
     inkscape:deskcolor="#d1d1d1"
     inkscape:zoom="1.4142136"
     inkscape:cx="316.78384"
     inkscape:cy="400.57599"
     inkscape:window-width="2560"
     inkscape:window-height="1377"
     inkscape:window-x="-8"
     inkscape:window-y="-8"
     inkscape:window-maximized="1"
     inkscape:current-layer="svg2" /><path
     d="M 274,1 C 172.5,1 50.214,34.686 48.412,95.314 44.43,229.265 18.877,482.837 4.782,551.08 2.61,561.593 2.916,573.48 7.647,583.116 l 21.3,43.383 44.42,-66.19 37.431,66.19 46.914,-58.959 32.441,58.959 46.914,-58.959 38.77187,61.97763 M 72.0075,558.386 100.0065,311.68858 m 56.9975,258.12642 22,-257.90981 m 57.997,256.06979 9.94096,-254.88633 0.059,-1.51367 M 274,1 c 101.5,0 227.786,34.686 229.588,95.314 3.982,133.951 29.536,387.523 43.63,455.767 2.172,10.513 1.866,22.4 -2.865,32.036 l -21.3,43.383 -44.419,-66.19 -37.432,66.19 -46.914,-58.959 -32.441,58.959 -46.914,-58.959 -39.7856,60.91574 M 479.994,559.386 l -28,-247.45378 M 394.996,570.815 372.92527,311.89245 M 315,570.861 303.99805,312.02097"
     stroke="#ff0000"
     stroke-width="2"
     id="path2"
     sodipodi:nodetypes="ccccccccccccccccccccccccccccccccccc"
     style="display:inline" /><path
     id="path180"
     style="fill:#000000"
     d="m 276.91806,83.473596 1.43708,-1.94376 -1.47742,-2.28064 c -0.81258,-1.25435 -1.62392,-2.28343 -1.80299,-2.28683 -0.17906,-0.003 -0.91161,0.87118 -1.62787,1.94351 -0.71626,1.07234 -1.53455,1.95055 -1.81842,1.95157 -0.28386,0.001 0.30217,1.02743 1.3023,2.28088 1.00013,1.25345 1.98308,2.279 2.18432,2.27901 0.20125,10e-6 1.0126,-0.87467 1.803,-1.94374 z m -8.45423,-8.885435 1.94883,-2.364274 2.33104,1.440659 2.33103,1.440659 2.37041,-1.464993 c 2.32214,-1.435161 2.38869,-1.439558 3.2681,-0.215894 2.08251,2.897698 2.90801,3.527588 4.6107,3.518148 2.16124,-0.012 2.98903,-0.50906 3.97857,-2.389029 1.46929,-2.791418 0.90396,-6.861304 -1.50988,-10.869876 -2.64061,-4.385173 -12.19642,-16.676456 -12.81827,-16.487674 -0.85999,0.261077 -12.1437,15.19132 -13.4882,17.847154 -2.08682,4.122166 -1.6804,9.737573 0.82588,11.411065 1.79616,1.19933 4.23485,0.45963 6.15179,-1.865945 z m 11.59331,35.071789 c 2.5147,-3.14063 5.71884,-7.43722 7.1203,-9.54798 2.3008,-3.465254 2.54812,-4.243824 2.54812,-8.021414 0,-3.61118 -0.21035,-4.354 -1.53722,-5.42843 -0.84547,-0.68462 -2.10411,-1.24477 -2.79697,-1.24477 -1.30372,0 -3.72562,2.06571 -4.91622,4.19319 -0.65934,1.17817 -0.74783,1.17201 -2.65341,-0.18489 -2.45561,-1.74855 -3.0384,-1.74855 -5.49402,0 -1.90558,1.3569 -1.99407,1.36306 -2.65341,0.18489 -1.22224,-2.18401 -3.6266,-4.19319 -5.01795,-4.19319 -0.74882,0 -2.08071,0.71923 -2.95976,1.59828 -2.28725,2.28725 -2.20948,6.85696 0.19238,11.3045 1.93686,3.586474 12.27851,17.050044 13.0965,17.050044 0.27471,0 2.55695,-2.56961 5.07166,-5.71023 z m -13.44733,26.3582 c 0,-3.01345 1.77671,-9.49199 3.32228,-12.11422 l 1.3027,-2.21018 -1.88105,-2.34785 c -13.46686,-16.80882 -15.76555,-20.766324 -15.76638,-27.143924 -3.8e-4,-2.9325 0.42096,-4.79008 1.62463,-7.16263 1.99423,-3.93081 1.99392,-3.8759 0.0323,-5.8375 -2.02291,-2.02292 -3.02299,-2.0089 -5.5021,0.0771 -4.32115,3.63601 -3.97399,8.25543 1.75808,23.393804 5.32603,14.06599 6.58474,21.56011 4.74022,28.22237 -0.83827,3.02778 -1.12075,3.10173 -5.49521,1.43856 -1.59457,-0.60626 -1.59539,-0.61144 -0.61967,-3.93992 1.23976,-4.22924 0.47233,-9.17203 -2.81372,-18.12222 -5.2632,-14.335334 -6.79671,-19.697104 -6.82878,-23.876134 -0.06,-7.81411 4.21635,-13.803975 10.66191,-14.93419 2.14531,-0.376176 2.4418,-0.651838 2.4418,-2.270238 0,-4.567403 2.4111,-8.776711 11.82994,-20.652802 l 5.75144,-7.251906 -1.9192,-4.143186 c -1.08312,-2.338253 -2.11267,-5.916094 -2.36331,-8.212861 l -0.44412,-4.069676 h 3.33985 c 3.30857,0 3.33985,0.01911 3.33985,2.040686 0,2.409617 1.30516,7.075388 1.97921,7.075388 0.58378,0 1.92768,-5.194497 1.92768,-7.450971 0,-1.564025 0.19763,-1.665103 3.25574,-1.665103 3.1289,0 3.25574,0.07077 3.25574,1.816639 0,2.599508 -1.72132,8.849758 -3.27706,11.899252 l -1.32982,2.606654 6.56451,8.280217 c 7.01761,8.851756 11.06533,15.933647 11.06533,19.359919 0,1.960544 0.21178,2.167558 2.91337,2.847826 3.85372,0.97038 7.00721,3.845862 8.80771,8.031222 2.09839,4.87784 1.56726,10.32256 -1.95493,20.0403 -5.83015,16.085444 -6.67465,19.060894 -6.74559,23.766914 -0.0378,2.50692 0.17198,5.45623 0.46615,6.55402 0.5144,1.91961 0.43251,2.02664 -2.14047,2.79753 -1.47143,0.44085 -2.9386,0.63883 -3.26038,0.43996 -0.76632,-0.47361 -1.99275,-6.25501 -1.99275,-9.39383 0,-3.69506 2.14097,-11.36711 6.25485,-22.41395 4.37353,-11.744054 5.11524,-16.975914 2.90402,-20.484424 -1.91088,-3.032 -4.08074,-3.89581 -6.23703,-2.48296 -2.4427,1.60052 -2.63755,2.75855 -0.9649,5.73462 0.98853,1.75885 1.59292,4.13969 1.80565,7.11287 0.28897,4.03876 0.12486,4.86063 -1.70442,8.5354 -1.1133,2.236474 -3.42366,5.875834 -5.13413,8.087474 -1.71047,2.21164 -4.78409,6.17361 -6.83027,8.80439 l -3.72032,4.78324 1.6154,3.37538 c 1.58099,3.3035 2.89508,8.59695 2.89508,11.66211 0,1.4127 -0.26719,1.539 -3.25574,1.539 -3.05811,0 -3.25574,-0.10108 -3.25574,-1.6651 0,-2.38888 -1.35887,-7.45097 -2.00014,-7.45097 -0.71957,0 -1.89855,4.33639 -1.90312,6.99984 -0.004,2.10489 -0.0211,2.11623 -3.25937,2.11623 -3.24715,0 -3.25574,-0.006 -3.25574,-2.14221 z" /><ellipse
     style="fill:none;stroke:#ff0202;stroke-width:0.133333"
     id="path181"
     cx="130.69434"
     cy="70.014816"
     rx="10"
     ry="9.999999" /><circle
     style="fill:none;stroke:#ff0202;stroke-width:0.133333"
     id="path181-1"
     cx="433.58905"
     cy="70.014664"
     r="10" /><path
     style="fill:#ff0000;stroke:#ff0101;stroke-width:1px;stroke-linecap:butt;stroke-linejoin:miter;stroke-opacity:1;fill-opacity:1"
     d="m 34.110679,311.75865 h 6.705423 m 1,0 h 6.705423 m 1,0 h 6.705423 m 1,0 h 6.705423 m 1,0 h 6.705423 m 1,0 h 6.705423 m 1,0 h 6.705423 m 1,0 h 6.705423 m 1,0 h 6.705427 m 1,0 h 6.70542 m 1,0 h 6.70542 m 1,0 h 6.70543 m 1,0 h 6.70542 m 1,0 h 6.70542 m 1,0 h 6.70542 m 1,0 h 6.70543 m 1,0 h 6.70542 m 1,0 h 6.70542 m 1,0 h 6.70543 m 1,0 h 6.70542 m 1,0 h 6.70542 m 1,0 h 6.70543 m 1,0 h 6.70542 m 1,0 h 6.70542 m 1,0 h 6.70542 m 1,0 h 6.70543 m 1,0 h 6.70542 m 1,0 h 6.70542 m 1,0 h 6.70543 m 1,0 h 6.70542 m 1,0 h 6.70542 m 1,0 h 6.70543 m 1,0 h 6.70542 m 1,0 h 6.70542 m 1,0 h 6.70542 m 1,0 h 6.70543 m 1,0 h 6.70542 m 1,0 h 6.70542 m 1,0 h 6.70543 m 1,0 h 6.70542 m 1,0 h 6.70542 m 1,0 h 6.70543 m 1,0 h 6.70542 m 1,0 h 6.70542 m 1,0 h 6.70542 m 1,0 h 6.70543 m 1,0 h 6.70542 m 1,0 h 6.70542 m 1,0 h 6.70543 m 1,0 h 6.70542 m 1,0 h 6.70542 m 1,0 h 6.70543 m 1,0 h 6.70542 m 1,0 h 6.70542 m 1,0 h 6.70542 m 1,0 h 6.70543 m 1,0 h 6.70542 m 1,0 h 6.70542 m 1,0 h 6.70543 m 1,0 h 6.70542 m 1,0 h 6.70542 m 1,0 h 6.70543 m 1,0 h 6.70542 m -484.441651,0 h 6.705423 m 1,0 h 6.705423 m 1,0 h 6.705423 m 1,0 h 6.705423 m 1,0 h 6.705423 m 1,0 h 6.705423 m 1,0 h 6.705423 m 1,0 h 6.705423 m 1,0 h 6.705427 m 1,0 h 6.70542 m 1,0 h 6.70542 m 1,0 h 6.70543 m 1,0 h 6.70542 m 1,0 h 6.70542 m 1,0 h 6.70542 m 1,0 h 6.70543 m 1,0 h 6.70542 m 1,0 h 6.70542 m 1,0 h 6.70543 m 1,0 h 6.70542 m 1,0 h 6.70542 m 1,0 h 6.70543 m 1,0 h 6.70542 m 1,0 h 6.70542 m 1,0 h 6.70542 m 1,0 h 6.70543 m 1,0 h 6.70542 m 1,0 h 6.70542 m 1,0 h 6.70543 m 1,0 h 6.70542 m 1,0 h 6.70542 m 1,0 h 6.70543 m 1,0 h 6.70542 m 1,0 h 6.70542 m 1,0 h 6.70542 m 1,0 h 6.70543 m 1,0 h 6.70542 m 1,0 h 6.70542 m 1,0 h 6.70543 m 1,0 h 6.70542 m 1,0 h 6.70542 m 1,0 h 6.70543 m 1,0 h 6.70542 m 1,0 h 6.70542 m 1,0 h 6.70542 m 1,0 h 6.70543 m 1,0 h 6.70542 m 1,0 h 6.70542 m 1,0 h 6.70543 m 1,0 h 6.70542 m 1,0 h 6.70542 m 1,0 h 6.70543 m 1,0 h 6.70542 m 1,0 h 6.70542 m 1,0 h 6.70542 m 1,0 h 6.70543 m 1,0 h 6.70542 m 1,0 h 6.70542 m 1,0 h 6.70543 m 1,0 h 6.70542 m 1,0 h 6.70542 m 1,0 h 6.70543 m 1,0 h 6.70542 m -484.441651,0 h 6.705423 m 1,0 h 6.705423 m 1,0 h 6.705423 m 1,0 h 6.705423 m 1,0 h 6.705423 m 1,0 h 6.705423 m 1,0 h 6.705423 m 1,0 h 6.705423 m 1,0 h 6.705427 m 1,0 h 6.70542 m 1,0 h 6.70542 m 1,0 h 6.70543 m 1,0 h 6.70542 m 1,0 h 6.70542 m 1,0 h 6.70542 m 1,0 h 6.70543 m 1,0 h 6.70542 m 1,0 h 6.70542 m 1,0 h 6.70543 m 1,0 h 6.70542 m 1,0 h 6.70542 m 1,0 h 6.70543 m 1,0 h 6.70542 m 1,0 h 6.70542 m 1,0 h 6.70542 m 1,0 h 6.70543 m 1,0 h 6.70542 m 1,0 h 6.70542 m 1,0 h 6.70543 m 1,0 h 6.70542 m 1,0 h 6.70542 m 1,0 h 6.70543 m 1,0 h 6.70542 m 1,0 h 6.70542 m 1,0 h 6.70542 m 1,0 h 6.70543 m 1,0 h 6.70542 m 1,0 h 6.70542 m 1,0 h 6.70543 m 1,0 h 6.70542 m 1,0 h 6.70542 m 1,0 h 6.70543 m 1,0 h 6.70542 m 1,0 h 6.70542 m 1,0 h 6.70542 m 1,0 h 6.70543 m 1,0 h 6.70542 m 1,0 h 6.70542 m 1,0 h 6.70543 m 1,0 h 6.70542 m 1,0 h 6.70542 m 1,0 h 6.70543 m 1,0 h 6.70542 m 1,0 h 6.70542 m 1,0 h 6.70542 m 1,0 h 6.70543 m 1,0 h 6.70542 m 1,0 h 6.70542 m 1,0 h 6.70543 m 1,0 h 6.70542 m 1,0 h 6.70542 m 1,0 h 6.70543 m 1,0 h 6.70542"
     id="path355"
     sodipodi:nodetypes="cc"
     inkscape:path-effect="#path-effect355"
     inkscape:original-d="m 34.110679,311.75865 6.705423,0" /><g
     style="fill:#000000"
     id="g1"
     transform="translate(-117.46781,-149.50089)"><path
       id="path10"
       d="m 208.22269,358.24177 c -1.1136,0 -2.10742,0.19433 -2.98242,0.58203 -0.875,0.3878 -1.56421,0.92609 -2.06641,1.61718 -0.4971,0.691 -0.74328,1.49913 -0.73828,2.42383 -0.005,1.1286 0.36563,2.02716 1.11133,2.69336 0.7458,0.6662 1.76308,1.15585 3.05078,1.46875 l 1.66211,0.41797 c 0.5568,0.134 1.02736,0.28131 1.41015,0.44531 0.3878,0.164 0.68001,0.36366 0.87891,0.59766 0.2038,0.234 0.30664,0.52223 0.30664,0.86523 0,0.368 -0.11224,0.69356 -0.33594,0.97656 -0.2237,0.283 -0.53956,0.50507 -0.94726,0.66407 -0.4027,0.159 -0.87693,0.23828 -1.42383,0.23828 -0.5568,0 -1.0575,-0.083 -1.5,-0.25196 -0.4375,-0.174 -0.78728,-0.43153 -1.05078,-0.76953 -0.2585,-0.343 -0.40465,-0.7712 -0.43945,-1.2832 h -3.125 c 0.0248,1.099 0.29172,2.02158 0.79882,2.76758 0.5121,0.74 1.22302,1.29973 2.13282,1.67773 0.9148,0.377 1.9878,0.56641 3.2207,0.56641 1.2429,0 2.30359,-0.18559 3.18359,-0.55859 0.885,-0.378 1.562,-0.9069 2.0293,-1.5879 0.4723,-0.68699 0.70994,-1.49664 0.71484,-2.43164 -0.005,-0.636 -0.12091,-1.20136 -0.34961,-1.69336 -0.22369,-0.49299 -0.53956,-0.9201 -0.94726,-1.2832 -0.4076,-0.3629 -0.89047,-0.66741 -1.44727,-0.91601 -0.5568,-0.2486 -1.16778,-0.44856 -1.83398,-0.59766 l -1.37109,-0.32812 c -0.3331,-0.0746 -0.64811,-0.16318 -0.94141,-0.26758 -0.2933,-0.1094 -0.55159,-0.23676 -0.77539,-0.38086 -0.2237,-0.1492 -0.4001,-0.3255 -0.5293,-0.5293 -0.1243,-0.2038 -0.18177,-0.44339 -0.17187,-0.71679 0,-0.3281 0.0963,-0.62041 0.28515,-0.87891 0.1939,-0.2585 0.47099,-0.45942 0.83399,-0.60352 0.3629,-0.1492 0.80894,-0.22461 1.33593,-0.22461 0.7756,0 1.3894,0.16691 1.8418,0.5 0.4524,0.3331 0.70798,0.80075 0.76758,1.40235 h 3.0957 c -0.0149,-0.9098 -0.26012,-1.71135 -0.73242,-2.40235 -0.4723,-0.69109 -1.13222,-1.22938 -1.98242,-1.61718 -0.8451,-0.3877 -1.83525,-0.58203 -2.96875,-0.58203 z m 152.32032,0 c -1.009,0 -1.94555,0.17639 -2.81055,0.52929 -0.865,0.353 -1.62339,0.86687 -2.27539,1.54297 -0.651,0.6762 -1.15849,1.50207 -1.52149,2.47656 -0.358,0.9694 -0.53515,2.07255 -0.53515,3.31055 0,1.6104 0.29939,3.00373 0.90039,4.17773 0.607,1.168 1.45311,2.07003 2.53711,2.70703 1.084,0.631 2.34244,0.94532 3.77344,0.94532 1.28299,0 2.42201,-0.25839 3.41601,-0.77539 0.994,-0.522 1.77385,-1.26366 2.33984,-2.22266 0.567,-0.965 0.85157,-2.11699 0.85157,-3.45898 v -1.92383 h -6.39063 v 2.43164 h 3.26953 c -0.0141,0.60731 -0.14219,1.1433 -0.40625,1.5957 -0.273,0.477 -0.67136,0.84733 -1.19336,1.11133 -0.517,0.258 -1.14204,0.38672 -1.87304,0.38672 -0.805,0 -1.50275,-0.19403 -2.09375,-0.58203 -0.592,-0.393 -1.05005,-0.96104 -1.37305,-1.70703 -0.324,-0.746 -0.48437,-1.65055 -0.48437,-2.71485 0,-1.06389 0.16418,-1.96342 0.49218,-2.69921 0.328,-0.7407 0.7851,-1.30556 1.3711,-1.69336 0.592,-0.3878 1.27859,-0.58204 2.05859,-0.58204 0.418,0 0.79763,0.0519 1.14063,0.15625 0.348,0.1045 0.65778,0.25618 0.92578,0.45508 0.274,0.1938 0.50436,0.4334 0.69336,0.7168 0.189,0.2784 0.33445,0.59794 0.43945,0.96094 h 3.28125 c -0.104,-0.7557 -0.34099,-1.44587 -0.70899,-2.07227 -0.36699,-0.6314 -0.84182,-1.17541 -1.42382,-1.63281 -0.577,-0.4573 -1.23838,-0.80999 -1.98438,-1.05859 -0.745,-0.2536 -1.55101,-0.38086 -2.41601,-0.38086 z m 27.65625,0 c -1.114,0 -2.10743,0.19433 -2.98243,0.58203 -0.87499,0.3878 -1.5644,0.92609 -2.0664,1.61718 -0.497,0.691 -0.74328,1.49913 -0.73828,2.42383 -0.005,1.1286 0.36533,2.02716 1.11132,2.69336 0.746,0.6662 1.76379,1.15585 3.05079,1.46875 l 1.66211,0.41797 c 0.557,0.134 1.02715,0.28131 1.41015,0.44531 0.387,0.164 0.68186,0.36366 0.88086,0.59766 0.203,0.234 0.30469,0.52223 0.30469,0.86523 0,0.368 -0.11194,0.69356 -0.33594,0.97656 -0.224,0.283 -0.54026,0.50507 -0.94726,0.66407 -0.403,0.159 -0.87683,0.23828 -1.42383,0.23828 -0.556,0 -1.057,-0.083 -1.5,-0.25196 -0.437,-0.174 -0.78778,-0.43153 -1.05078,-0.76953 -0.259,-0.343 -0.40446,-0.7712 -0.43946,-1.2832 h -3.125 c 0.025,1.099 0.28988,2.02158 0.79688,2.76758 0.512,0.74 1.22476,1.29973 2.13476,1.67773 0.915,0.377 1.98771,0.56641 3.22071,0.56641 1.243,0 2.30359,-0.18559 3.18359,-0.55859 0.885,-0.378 1.5623,-0.9069 2.0293,-1.5879 0.473,-0.68699 0.70984,-1.49664 0.71484,-2.43164 -0.005,-0.636 -0.12161,-1.20136 -0.34961,-1.69336 -0.224,-0.49299 -0.54026,-0.9201 -0.94726,-1.2832 -0.408,-0.3629 -0.89027,-0.66741 -1.44727,-0.91601 -0.557,-0.2486 -1.16698,-0.44856 -1.83398,-0.59766 l -1.37305,-0.32812 c -0.333,-0.0746 -0.6445,-0.16318 -0.9375,-0.26758 -0.294,-0.1094 -0.55334,-0.23676 -0.77734,-0.38086 -0.224,-0.1492 -0.4003,-0.3255 -0.5293,-0.5293 -0.125,-0.2038 -0.18188,-0.44339 -0.17188,-0.71679 0,-0.3281 0.0952,-0.62041 0.28321,-0.87891 0.194,-0.2585 0.47293,-0.45942 0.83593,-0.60352 0.363,-0.1492 0.80894,-0.22461 1.33594,-0.22461 0.775,0 1.3888,0.16691 1.8418,0.5 0.452,0.3331 0.70758,0.80075 0.76758,1.40235 h 3.09375 c -0.014,-0.9098 -0.25652,-1.71135 -0.72852,-2.40235 -0.473,-0.69109 -1.13437,-1.22938 -1.98437,-1.61718 -0.845,-0.3877 -1.83575,-0.58203 -2.96875,-0.58203 z m 125.23632,0 c -1.35699,0 -2.57334,0.30732 -3.65234,0.92382 -1.079,0.6115 -1.93159,1.50163 -2.55859,2.66993 -0.626,1.16829 -0.93946,2.58655 -0.93946,4.25195 0,1.66039 0.31346,3.07419 0.93946,4.24218 0.627,1.168 1.47959,2.06174 2.55859,2.67774 1.079,0.617 2.29535,0.92383 3.65234,0.92383 1.348,0 2.56163,-0.30502 3.64063,-0.91602 1.083,-0.617 1.93845,-1.50873 2.56445,-2.67773 0.631,-1.168 0.94727,-2.58461 0.94727,-4.25 0,-1.6654 -0.31627,-3.08366 -0.94727,-4.25195 -0.626,-1.1683 -1.48145,-2.05843 -2.56445,-2.66993 -1.079,-0.6165 -2.29263,-0.92382 -3.64063,-0.92382 z m 47.14844,0 c -1.357,0 -2.5753,0.30732 -3.6543,0.92382 -1.07899,0.6115 -1.93064,1.50163 -2.55664,2.66993 -0.62699,1.16829 -0.9414,2.58655 -0.9414,4.25195 0,1.66039 0.31441,3.07419 0.9414,4.24218 0.626,1.168 1.47765,2.06174 2.55664,2.67774 1.079,0.617 2.2973,0.92383 3.6543,0.92383 1.347,0 2.55967,-0.30502 3.63867,-0.91602 1.084,-0.617 1.94041,-1.50873 2.56641,-2.67773 0.632,-1.168 0.94727,-2.58461 0.94727,-4.25 0,-1.6654 -0.31527,-3.08366 -0.94727,-4.25195 -0.626,-1.1683 -1.48241,-2.05843 -2.56641,-2.66993 -1.079,-0.6165 -2.29167,-0.92382 -3.63867,-0.92382 z m -344.29688,0.20898 v 15.27148 h 3.22852 v -9.61132 h 0.11133 l 6.64453,9.61132 h 2.78906 v -15.27148 h -3.21484 v 9.60351 h -0.13282 l -6.59375,-9.60351 z m 15.44141,0 v 15.27148 h 10.32031 v -2.66015 h -7.0918 v -3.64844 h 6.53321 v -2.66211 h -6.53321 v -3.63867 h 7.0625 v -2.66211 z m 17.30273,0 -5.27148,15.27148 h 3.45898 l 1.13282,-3.48242 h 5.51562 l 1.13086,3.48242 h 3.45898 l -5.26367,-15.27148 z m 11.26563,0 v 15.27148 h 3.22851 v -4.33984 l 1.58789,-1.9375 4.1836,6.27734 h 3.86328 l -5.73437,-8.43359 5.66601,-6.83789 h -3.86914 l -5.49609,6.73438 h -0.20118 v -6.73438 z m 14.47852,0 v 15.27148 h 10.32031 v -2.66015 h -7.0918 v -3.64844 h 6.53321 v -2.66211 h -6.53321 v -3.63867 h 7.0625 v -2.66211 z m 12.85742,0 v 15.27148 h 3.22852 v -5.41406 h 2.35742 l 2.89258,5.41406 h 3.56445 l -3.24805,-5.94922 c 0.0452,-0.0196 0.10229,-0.0261 0.14649,-0.0469 0.83,-0.388 1.46339,-0.94372 1.90039,-1.66992 0.438,-0.7308 0.6582,-1.60299 0.6582,-2.61719 0,-1.0093 -0.21644,-1.88711 -0.64844,-2.63281 -0.428,-0.7507 -1.05305,-1.32863 -1.87304,-1.73633 -0.815,-0.4126 -1.80013,-0.61914 -2.95313,-0.61914 z m 18.64258,0 v 15.27148 h 3.22851 v -6.30859 h 6.21094 v -2.66211 h -6.21094 v -3.63867 h 6.88282 v -2.66211 z m 12.2832,0 v 15.27148 h 3.22852 v -5.41406 h 2.35742 l 2.89258,5.41406 h 3.56445 l -3.24805,-5.94922 c 0.0452,-0.0196 0.10229,-0.0261 0.14649,-0.0469 0.83,-0.388 1.46534,-0.94372 1.90234,-1.66992 0.438,-0.7308 0.6543,-1.60299 0.6543,-2.61719 0,-1.0093 -0.21449,-1.88711 -0.64649,-2.63281 -0.428,-0.7507 -1.05304,-1.32863 -1.87304,-1.73633 -0.815,-0.4126 -1.80013,-0.61914 -2.95313,-0.61914 z m 13.78125,0 v 15.27148 h 3.22852 v -15.27148 z m 5.88477,0 v 15.27148 h 3.23047 v -9.61132 h 0.11132 l 6.64453,9.61132 h 2.78907 v -15.27148 h -3.21289 v 9.60351 h -0.13477 l -6.59375,-9.60351 z m 31.41797,0 v 15.27148 h 10.32226 v -2.66015 h -7.0918 v -3.64844 h 6.53321 v -2.66211 h -6.53321 v -3.63867 h 7.06055 v -2.66211 z m 31.48046,0 v 15.27148 h 3.13282 v -9.97656 h 0.125 l 3.95312,9.90234 h 2.13281 l 3.95313,-9.86523 h 0.12695 v 9.93945 h 3.13086 v -15.27148 h -3.98047 l -4.20703,10.26172 h -0.17969 l -4.20507,-10.26172 z m 23.66016,0 -5.27148,15.27148 h 3.45898 l 1.13281,-3.48242 h 5.51563 l 1.13086,3.48242 h 3.45898 l -5.26367,-15.27148 z m 11.26367,0 v 15.27148 h 5.41406 c 1.552,0 2.88405,-0.30501 3.99805,-0.91601 1.118,-0.612 1.97627,-1.48882 2.57227,-2.63282 0.602,-1.14299 0.90234,-2.51026 0.90234,-4.10156 0,-1.58589 -0.30034,-2.94743 -0.90234,-4.08593 -0.596,-1.1385 -1.44864,-2.01254 -2.55664,-2.61914 -1.109,-0.6115 -2.43275,-0.91602 -3.96875,-0.91602 z m 15.2793,0 v 15.27148 h 10.32226 v -2.66015 h -7.09375 v -3.64844 h 6.53321 v -2.66211 h -6.53321 v -3.63867 h 7.0625 v -2.66211 z m 17.71875,0 v 15.27148 h 3.23047 v -15.27148 z m 5.88476,0 v 15.27148 h 3.23047 v -9.61132 h 0.11133 l 6.64453,9.61132 h 2.78907 v -15.27148 h -3.2129 v 9.60351 h -0.13476 l -6.59375,-9.60351 z m 20.30469,0 v 15.27148 h 9.77539 v -2.66015 h -6.54687 v -12.61133 z m 27.7461,0 v 15.27148 h 3.22851 v -9.61132 h 0.11328 l 6.64258,9.61132 h 2.79102 v -15.27148 h -3.21485 v 9.60351 h -0.13476 l -6.5918,-9.60351 z m 15.4414,0 v 15.27148 h 5.41406 c 1.552,0 2.88405,-0.30501 3.99805,-0.91601 1.118,-0.612 1.97627,-1.48882 2.57227,-2.63282 0.602,-1.14299 0.90234,-2.51026 0.90234,-4.10156 0,-1.58589 -0.30034,-2.94743 -0.90234,-4.08593 -0.596,-1.1385 -1.44864,-2.01254 -2.55664,-2.61914 -1.109,-0.6115 -2.43275,-0.91602 -3.96875,-0.91602 z m 31.70508,0 v 15.27148 h 3.23047 v -9.61132 h 0.11133 l 6.64453,9.61132 h 2.78906 v -15.27148 h -3.21289 v 9.60351 h -0.13477 l -6.59375,-9.60351 z m -279.26562,2.63867 h 2.17773 c 0.621,0 1.13692,0.0934 1.54492,0.27735 0.412,0.179 0.71702,0.44106 0.91602,0.78906 0.204,0.348 0.30664,0.7761 0.30664,1.2832 0,0.5021 -0.10264,0.92167 -0.30664,1.25977 -0.199,0.338 -0.50216,0.59272 -0.91016,0.76172 -0.408,0.169 -0.91916,0.2539 -1.53516,0.2539 h -2.19335 z m 30.92578,0 h 2.17773 c 0.621,0 1.13597,0.0934 1.54297,0.27735 0.413,0.179 0.71897,0.44106 0.91797,0.78906 0.204,0.348 0.30664,0.7761 0.30664,1.2832 0,0.5021 -0.10264,0.92167 -0.30664,1.25977 -0.199,0.338 -0.50216,0.59272 -0.91016,0.76172 -0.408,0.169 -0.91915,0.2539 -1.53515,0.2539 h -2.19336 z m 191.64843,0.008 c 0.781,0 1.46293,0.19142 2.04493,0.57422 0.581,0.3828 1.03061,0.94485 1.34961,1.68555 0.323,0.7408 0.48437,1.65167 0.48437,2.73047 0,1.0784 -0.16137,1.98751 -0.48437,2.72851 -0.319,0.741 -0.76861,1.30355 -1.34961,1.68555 -0.582,0.383 -1.26393,0.57422 -2.04493,0.57422 -0.77999,0 -1.46096,-0.19122 -2.04296,-0.57422 -0.582,-0.382 -1.03247,-0.94455 -1.35547,-1.68555 -0.318,-0.741 -0.47852,-1.65011 -0.47852,-2.72851 0,-1.0788 0.16052,-1.98967 0.47852,-2.73047 0.323,-0.7407 0.77347,-1.30275 1.35547,-1.68555 0.582,-0.3828 1.26297,-0.57422 2.04296,-0.57422 z m 47.14844,0 c 0.78,0 1.46197,0.19142 2.04297,0.57422 0.582,0.3828 1.03161,0.94485 1.34961,1.68555 0.323,0.7408 0.48633,1.65167 0.48633,2.73047 0,1.0784 -0.16333,1.98751 -0.48633,2.72851 -0.318,0.741 -0.76761,1.30355 -1.34961,1.68555 -0.581,0.383 -1.26297,0.57422 -2.04297,0.57422 -0.781,0 -1.46197,-0.19122 -2.04297,-0.57422 -0.582,-0.382 -1.03442,-0.94455 -1.35742,-1.68555 -0.318,-0.741 -0.47656,-1.65011 -0.47656,-2.72851 0,-1.0788 0.15856,-1.98967 0.47656,-2.73047 0.323,-0.7407 0.77542,-1.30275 1.35742,-1.68555 0.581,-0.3828 1.26197,-0.57422 2.04297,-0.57422 z m -121.30664,0.11914 h 2.05859 c 0.954,0 1.75721,0.16972 2.40821,0.50782 0.652,0.338 1.13975,0.86417 1.46875,1.58007 0.333,0.7159 0.5,1.63908 0.5,2.76758 0,1.1383 -0.167,2.06806 -0.5,2.78906 -0.329,0.716 -0.82057,1.2449 -1.47656,1.58789 -0.651,0.338 -1.45321,0.50782 -2.40821,0.50782 h -2.05078 z m 102.375,0 h 2.05859 c 0.954,0 1.75721,0.16972 2.40821,0.50782 0.652,0.338 1.13975,0.86417 1.46875,1.58007 0.333,0.7159 0.5,1.63908 0.5,2.76758 0,1.1383 -0.167,2.06806 -0.5,2.78906 -0.329,0.716 -0.82057,1.2449 -1.47656,1.58789 -0.651,0.338 -1.45321,0.50782 -2.40821,0.50782 h -2.05078 z m -290.59961,0.72462 h 0.11914 l 1.87695,5.7793 h -3.87695 z m 175.75195,0 h 0.11915 l 1.87695,5.7793 h -3.87695 z"
       style="fill:#000000" /></g><g
     style="fill:none"
     id="g47"
     transform="matrix(0.47514616,0,0,0.47514616,162.52049,156.95402)"><path
       d="M 1,12 V 2 H 38 V 12 H 28 V 62 H 46 L 50.5,51 H 61 L 53,72 H 1 V 62 H 8 V 12 Z"
       fill="#000000"
       id="path1-9" /><path
       d="M 1,12 V 2 H 38 V 12 H 28 V 62 H 46 L 50.5,51 H 61 L 53,72 H 1 V 62 H 8 V 12 Z"
       stroke="#000000"
       id="path3" /><path
       d="m 103,11 c -23.5,0 -29.5,52 0,52 29,-0.5 24,-52 0,-52 z"
       stroke="#000000"
       id="path4-3" /><path
       d="M 276,12 V 2 h 37 v 10 h -10 v 50 h 18 l 4.5,-11 H 336 l -8,21 H 276 V 62 h 7 V 12 Z"
       fill="#000000"
       id="path5-4" /><path
       d="m 397,2 v 17 h -10 v -7 h -19 v 19 h 12 v -7 h 9 v 23 h -9 v -7 h -12 v 22 h 23 l 3.5,-9 H 405 l -7,19 H 341 V 62 h 7 V 12 h -7 V 2 Z"
       fill="#000000"
       id="path6-9" /><path
       d="M 276,12 V 2 h 37 v 10 h -10 v 50 h 18 l 4.5,-11 H 336 l -8,21 H 276 V 62 h 7 V 12 Z"
       stroke="#000000"
       id="path7-7" /><path
       d="m 397,2 v 17 h -10 v -7 h -19 v 19 h 12 v -7 h 9 v 23 h -9 v -7 h -12 v 22 h 23 l 3.5,-9 H 405 l -7,19 H 341 V 62 h 7 V 12 h -7 V 2 Z"
       stroke="#000000"
       id="path8-2" /><path
       id="path9-4"
       d="m 409.00017,1.99986 v 10 h 7 v 50 h -7 v 10 h 36 v -10 h -9 v -17 h 8 c 39.99996,0 37.49997,-42.99962 -1,-43 z m 27,10 h 9 c 12.99999,5.999994 7,20.500003 0,23 h -9 z"
       style="fill:#000000" /><path
       id="path10-3"
       d="m 104.00017,0.99986 c -58.499938,0 -51.499945,73 0,73 50.99995,-1.999998 55.19895,-73 0,-73 z m -1,10 c 23.99998,0 28.99997,51.500001 0,52 -29.499967,0 -23.499973,-52 0,-52 z"
       style="fill:#000000" /><path
       id="path12"
       style="fill:#000000;stroke:none"
       d="m 153.00017,1.99986 v 10 h 7 v 50 h -7 v 10 h 34 v -10 h -7 v -19 h 5 c 4.5,10.33329 18.90003,30.799999 40.5,30 l 1.5,-4 c -7.49999,-4.666695 -22.4,-17.200013 -22,-30 17.99999,-5.999994 21.39997,-36.6000004 -13,-37 z m 27,10 h 10 c 12.99999,8.999991 6,18.500004 0,22 h -10 v -10.75 -10.75 z" /><path
       d="M 233,12 V 2 h 35 v 10 h -7 v 50 h 7 V 72 H 233 V 62 h 8 V 12 Z"
       fill="#000000"
       stroke="#000000"
       id="path13" /></g><g
     style="fill:none"
     id="g48"
     transform="translate(194.26145,273.3209)"><path
       d="M 0.113336,4.77969 0.0350993,0.0896436 H 22.1352 L 22.2135,4.77969 H 13.9752 L 14.3458,26.995 H 8.7222 L 8.35162,4.77969 Z M 26.2236,26.995 25.7748,0.0896436 H 43.9069 L 43.9851,4.77969 H 31.5423 l 0.107,6.41101 h 11.5099 l 0.0782,4.6901 H 31.7275 l 0.1072,6.4241 H 44.33 l 0.0783,4.6901 z m 27.2934,0 H 47.4204 L 56.261,0.0896436 h 7.3317 L 73.3178,26.995 H 67.2212 L 60.1346,6.23794 H 59.9243 Z M 52.9596,16.4194 h 14.4006 l 0.074,4.4404 H 53.0337 Z M 76.5566,26.995 76.1078,0.0896436 h 10.6165 c 2.0322,0 3.7726,0.3634674 5.2213,1.0904064 1.4573,0.71817 2.5736,1.73851 3.349,3.06101 0.784,1.31373 1.1908,2.85956 1.2205,4.63749 0.0298,1.78665 -0.33,3.32375 -1.0794,4.61125 -0.7495,1.2787 -1.8499,2.2596 -3.3014,2.9427 -1.4426,0.6832 -3.1976,1.0248 -5.2648,1.0248 h -7.1083 l -0.0763,-4.5719 h 6.1886 c 1.0861,0 1.9859,-0.1488 2.6992,-0.4466 0.7133,-0.2978 1.2402,-0.7445 1.5806,-1.34 C 90.5025,10.5032 90.6697,9.76313 90.655,8.87855 90.6401,7.98521 90.448,7.232 90.0786,6.61892 89.718,6.00584 89.1715,5.54165 88.4392,5.22636 87.7156,4.9023 86.8062,4.74028 85.7113,4.74028 H 81.8747 L 82.2459,26.995 Z M 90.8843,14.751 97.7764,26.995 H 91.4959 L 84.7483,14.751 Z M 108.953,0.0896436 h 7.016 L 123.681,18.1667 h 0.315 l 7.109,-18.0770564 h 7.017 L 138.57,26.995 h -5.518 L 132.76,9.48287 h -0.224 l -6.673,17.38073 h -3.758 L 114.85,9.41718 h -0.223 L 114.92,26.995 h -5.519 z M 143.258,26.995 142.809,0.0896436 h 18.132 l 0.078,4.6900464 h -12.443 l 0.107,6.41101 h 11.51 l 0.079,4.6901 h -11.51 l 0.107,6.4241 h 12.495 l 0.078,4.6901 z"
       fill="#000000"
       id="path1" /></g><g
     style="fill:none"
     id="g49"
     transform="matrix(0.68974276,0,0,0.68974276,277.90453,27.134661)"><path
       fill-rule="evenodd"
       clip-rule="evenodd"
       d="m 52.6249,259.77 c 0.3886,3.108 -0.766,5.166 -5.7687,10.281 -7.2089,7.372 -8.2833,10.972 -8.8137,29.537 -0.193,6.751 -0.6591,12.627 -1.0357,13.059 -0.377,0.433 -3.3531,0.741 -6.6134,0.684 -7.4872,-0.128 -14.9479,5.43 -16.2435,12.103 -0.4932,2.541 -4.22877,11.358 -8.30061,19.594 -8.15744,16.499 -8.02668,17.493 2.46572,18.706 7.58279,0.876 11.42379,-1.594 23.87679,-15.353 11.0548,-12.214 15.8633,-13.609 23.7248,-6.888 l 5.1699,4.42 -10.8757,12.476 c -8.8221,10.12 -10.6345,12.892 -9.5979,14.682 2.1992,3.797 9.5147,3.936 19.7762,0.375 5.4368,-1.886 10.7714,-3.473 11.8547,-3.526 1.0836,-0.054 4.0072,-2.434 6.4971,-5.29 2.4899,-2.857 5.027,-4.76 5.6378,-4.231 1.6772,1.453 12.2208,-1.642 14.5004,-4.257 2.1549,-2.472 18.3599,-10.778 24.9839,-12.806 14.178,-4.34 22.241,-7.421 27.378,-10.461 6.864,-4.062 19.134,-8.109 20.637,-6.807 1.748,1.515 14.306,0.518 21.082,-1.674 5.785,-1.87 6.218,-1.79 4.612,0.855 -0.974,1.606 -4.959,4.294 -8.855,5.974 -6.254,2.696 -8.962,5.209 -23.14,21.474 -15.305,17.556 -16.024,18.631 -15.334,22.92 0.491,3.046 2.364,5.92 5.8,8.898 6.638,5.752 10.635,4.844 20.933,-4.75 11.941,-11.126 23.321,-18.864 33.572,-22.828 14.048,-5.433 20.229,-8.4 26.237,-12.593 3.01,-2.101 12.754,-6.484 21.654,-9.739 15.153,-5.544 16.63,-6.436 23.252,-14.037 8.454,-9.705 14.154,-19.08 13.792,-22.685 -0.144,-1.444 1.407,-7.161 3.446,-12.705 2.04,-5.544 3.746,-10.903 3.791,-11.909 0.045,-1.005 1.607,-4.176 3.471,-7.045 3.533,-5.438 6.529,-26.916 4.082,-29.261 -0.72,-0.691 0.372,-0.605 2.427,0.192 2.686,1.039 3.972,0.718 4.569,-1.144 0.458,-1.425 3.374,-8.08 6.482,-14.787 3.107,-6.709 6.679,-15.579 7.936,-19.712 1.257,-4.134 3.987,-11.169 6.067,-15.634 11.947,-25.651 16.486,-35.853 18.154,-40.808 1.027,-3.048 3.656,-7.607 5.843,-10.13 2.187,-2.523 5.272,-7.735 6.856,-11.582 1.583,-3.847 4.353,-9.139 6.155,-11.759 13.796,-20.067 13.554,-19.5973 11.172,-21.6616 -1.266,-1.0963 -2.805,-1.4143 -3.422,-0.7071 -3.399,3.8992 -31.147,54.0377 -35.74,64.5797 -2.973,6.825 -7.716,15.962 -10.539,20.305 -2.823,4.343 -5.731,9.338 -6.463,11.098 -0.732,1.761 -1.74,2.709 -2.241,2.107 -2.858,-3.438 -3.989,-2.761 -3.565,2.134 1.218,14.073 -7.748,42.549 -13.598,43.186 -1.66,0.181 -3.1,4.499 -4.874,14.612 -1.385,7.895 -3.732,16.495 -5.215,19.113 l -2.698,4.757 -1.857,-4.176 c -2.466,-5.544 -9.544,-11.55 -14.217,-12.063 -3.459,-0.379 -3.284,-0.099 2.179,3.498 3.842,2.53 5.34,4.065 4.242,4.347 -0.933,0.239 -0.072,2.84 1.913,5.779 4.164,6.165 4.601,19.122 0.796,23.627 -1.3,1.539 -4.123,6.404 -6.271,10.809 -7.166,14.691 -17.272,23.574 -26.996,23.726 -2.05,0.032 -7.345,2.674 -11.768,5.871 -4.423,3.196 -12.178,7.355 -17.232,9.243 -11.98,4.473 -29.655,14.99 -54.163,32.227 -10.321,7.259 -12.122,8.018 -15.163,6.385 -5.057,-2.716 -5.132,-4.573 -0.404,-9.997 2.334,-2.677 7.661,-10.074 11.836,-16.437 l 7.592,-11.569 4.69,0.524 c 5.82,0.651 9.866,3.957 10.438,8.528 0.494,3.957 4.557,4.894 5.712,1.316 0.792,-2.455 -6.964,-14.098 -9.79,-14.696 -2.731,-0.578 -0.988,-1.991 3.276,-2.655 1.983,-0.308 5.448,-2.674 7.699,-5.256 3.51,-4.026 5.126,-4.645 11.345,-4.345 9.15,0.44 19.013,-2.879 20.619,-6.94 1.008,-2.55 -0.188,-2.464 -7.702,0.556 -9.463,3.804 -17,4.375 -18.097,1.371 -0.423,-1.158 1.498,-3.74 5.237,-7.043 6.846,-6.049 5.95,-9.54 -1.084,-4.218 -5.719,4.328 -24.666,9.833 -36.297,10.547 -4.136,0.254 -5.689,-0.578 -11.759,-6.303 -4.057,-3.826 -8.655,-7.031 -10.948,-7.631 -2.619,-0.686 -5.66,-2.958 -9.002,-6.723 l -5.046,-5.688 0.29,4.323 c 0.287,4.287 0.227,4.331 -7.244,5.266 -4.144,0.518 -7.907,1.37 -8.363,1.893 -0.456,0.523 -4.405,1.285 -8.777,1.693 -7.833,0.732 -8.044,0.648 -14.6096,-5.769 -14.4741,-14.149 -14.0117,-15.33 7.3136,-18.668 10.699,-1.674 16.249,-3.426 19.427,-6.133 2.448,-2.084 4.114,-4.08 3.703,-4.436 -0.41,-0.356 -4.868,0.819 -9.906,2.612 -5.038,1.793 -12.497,2.997 -16.576,2.676 -4.0797,-0.321 -7.3384,0.044 -7.2426,0.81 0.0959,0.767 -1.8539,2.093 -4.3326,2.946 -4.5162,1.555 -8.1017,0.097 -7.7349,-3.145 0.1075,-0.952 -0.7144,-2.539 -1.8264,-3.529 -1.8735,-1.666 -0.9089,-11.6 1.3811,-14.227 0.552,-0.633 4.3143,-1.856 8.3603,-2.717 6.9363,-1.477 9.6601,-3.269 28.2231,-18.571 1.573,-1.297 2.974,-3.361 3.112,-4.586 0.315,-2.776 -4.177,-0.151 -9.008,5.264 l -3.344,3.749 0.034,-4.69 c 0.048,-6.514 -2.891,-5.841 -4.093,0.938 -0.973,5.489 -1.122,5.64 -9.3644,9.464 -11.0686,5.136 -16.0129,6.01 -18.141,3.207 -2.4702,-3.253 -4.7307,-2.147 -3.618,1.772 1.6222,5.713 0.4367,15.229 -2.1001,16.856 -2.0171,1.294 -1.7729,2.071 1.4899,4.737 2.1464,1.753 5.0347,6.147 6.4187,9.763 2.3374,6.109 2.2799,6.477 -0.8109,5.193 -6.8013,-2.828 -4.516,0.642 6.9585,10.565 7.4197,6.416 12.3748,11.611 13.3423,13.988 1.838,4.511 -0.5282,5.597 -4.5667,2.098 -3.9991,-3.466 -10.9849,-5.637 -12.5093,-3.888 -1.5251,1.75 -3.0847,0.489 -8.0963,-6.543 -2.101,-2.948 -3.8413,-7.229 -3.8678,-9.513 -0.0264,-2.285 -0.5566,-3.595 -1.1779,-2.911 -2.0934,2.3 -8.0201,-10.397 -7.0846,-15.178 0.4779,-2.443 0.28,-6.949 -0.4395,-10.014 -2.6307,-11.209 -0.9945,-14.309 18.3474,-34.756 14.1427,-14.95 18.845,-19.107 24.8617,-21.979 4.081,-1.948 7.846,-3.172 8.368,-2.719 0.521,0.452 -0.521,3.822 -2.317,7.488 -1.796,3.667 -2.895,6.988 -2.442,7.38 0.453,0.392 5.581,-4.779 11.397,-11.49 12.853,-14.834 18.414,-18.158 12.751,-7.622 -2.075,3.862 -3.272,7.81 -2.66,8.774 0.613,0.964 1.633,1.157 2.267,0.429 0.635,-0.728 2.549,-1.135 4.254,-0.904 2.791,0.378 3.145,0.001 3.552,-3.778 0.668,-6.198 4.39,-11.882 8.729,-13.331 2.101,-0.702 8.164,-2.64 13.472,-4.307 5.309,-1.667 12.883,-4.05 16.833,-5.295 3.949,-1.245 10.173,-2.504 13.83,-2.799 3.658,-0.296 7.318,-1.302 8.134,-2.238 0.918,-1.053 1.958,-0.88 2.731,0.455 1.106,1.909 12.495,3.908 15.395,2.702 0.611,-0.254 2.122,0.414 3.357,1.485 1.236,1.071 3.008,1.751 3.938,1.513 0.93,-0.239 3.158,0.832 4.951,2.379 1.793,1.547 5.353,3.409 7.911,4.136 2.7,0.767 4.574,1.998 4.468,2.933 -0.276,2.442 1.921,3.783 3.406,2.079 2.064,-2.367 -2.79,-7.658 -12.818,-13.972 -11.426,-7.194 -14.463,-8.091 -19.116,-5.648 -2.022,1.061 -5.356,1.582 -7.41,1.157 -3.566,-0.739 -3.554,-0.903 0.248,-3.624 2.19,-1.567 5.308,-2.982 6.928,-3.145 1.621,-0.162 5.345,-2.294 8.275,-4.736 2.931,-2.442 5.594,-3.712 5.92,-2.822 1.251,3.431 4.902,-0.719 5.131,-5.833 0.27,-6.022 2.224,-8.87 8.023,-11.69 9.916,-4.824 22.395,-17.351 15.528,-15.587 -1.491,0.383 -1.667,-1.929 -0.557,-7.355 0.889,-4.352 2.714,-13.799 4.055,-20.994 1.341,-7.194 4.803,-19.5775 7.693,-27.519 2.89,-7.9412 4.981,-15.5301 4.647,-16.8637 -0.334,-1.3339 0.606,-8.2111 2.089,-15.2825 1.483,-7.0717 3.421,-17.0631 4.307,-22.2036 0.887,-5.1403 2.77,-11.4134 4.186,-13.94043 2.101,-3.75075 2.043,-5.05453 -0.316,-7.09828 -1.589,-1.37682 -3.039,-2.3314523 -3.222,-2.121201 -1.881,2.158051 -7.022,21.236511 -7.407,27.490311 -0.598,9.7177 -8.643,45.137 -14.703,64.7311 -2.42,7.8253 -4.854,17.6813 -5.408,21.9023 -0.554,4.22 -2.296,12.112 -3.872,17.536 -2.706,9.318 -3.169,10.017 -8.382,12.678 -6.559,3.346 -10.727,7.662 -11.489,11.894 -0.345,1.913 -1.196,2.942 -2.249,2.719 -0.931,-0.197 -4.033,1.653 -6.894,4.112 -11.896,10.226 -21.254,14.988 -33.051,16.821 -6.405,0.994 -15.042,2.769 -19.194,3.945 -4.152,1.175 -8.009,1.343 -8.571,0.373 -0.627,-1.083 -4.27,-0.104 -9.429,2.534 -4.624,2.364 -11.067,4.701 -14.319,5.194 -3.252,0.492 -9.663,3.466 -14.247,6.608 -4.583,3.143 -10.709,6.324 -13.612,7.069 -2.904,0.746 -7.54,3.203 -10.3039,5.46 -2.7636,2.257 -6.2095,4.517 -7.6576,5.022 -1.4888,0.52 -3.1237,2.423 -3.7633,4.382 -1.103,3.38 -19.3405,22.249 -29.8482,30.883 -4.186,3.44 -5.0707,4.977 -4.6771,8.128 z m 0.3419,10.426 3.232,-1.058 -0.1972,3.727 c -0.1082,2.05 1.7189,8.131 4.0603,13.513 3.3619,7.728 3.7678,10.194 1.9301,11.729 -1.4312,1.195 -3.4907,1.169 -5.3498,-0.069 -3.3103,-2.203 -5.8485,-0.927 -3.0235,1.521 0.9648,0.836 1.6267,2.542 1.4714,3.792 -0.1558,1.25 0.3669,3.36 1.1611,4.689 0.7946,1.329 0.6476,3.69 -0.3265,5.245 -1.4037,2.243 -0.8959,3.846 2.4499,7.73 2.321,2.696 5.6253,5.291 7.3422,5.769 2.3448,0.652 3.5993,2.381 5.0387,6.946 l 1.9166,6.079 -6.6439,-3.53 c -3.6543,-1.941 -8.7757,-3.562 -11.3807,-3.601 -4.6094,-0.07 -4.8324,-0.241 -8.2554,-6.333 -5.7416,-10.219 -4.3191,-45.611 2.1555,-53.62 0.6531,-0.809 2.6421,-1.946 4.4192,-2.529 z m -29.9905,51.239 c 0.3446,0.945 1.1322,1.137 1.7499,0.429 2.3239,-2.666 12.6236,-4.286 13.173,-2.072 0.2965,1.195 1.6326,3.659 2.9693,5.474 4.6325,6.291 4.5399,7.94 -0.5097,9.09 -4.0238,0.916 -5.0836,1.985 -9.1031,9.179 -3.903,6.987 -5.4882,8.646 -11.167,11.693 -8.9599,4.807 -18.3858,5.224 -14.38687,0.637 1.77971,-2.042 13.43437,-29.204 13.23037,-30.836 -0.2665,-2.131 3.3917,-5.381 4.0441,-3.594 z m 42.9174,-20.356 c 1.7616,-0.43 3.0519,1.083 6.205,7.276 l 3.9809,7.819 -5.3709,1.993 c -6.3716,2.364 -9.4042,-0.166 -9.654,-8.054 -0.1755,-5.533 1.2278,-8.154 4.839,-9.034 z m 56.7123,-62.903 c -0.647,1.281 0.767,5.5 3.286,9.806 2.433,4.157 5.081,8.721 5.885,10.142 1.023,1.806 1.915,2.066 2.962,0.864 0.929,-1.065 -0.538,-5.91 -3.855,-12.729 -5.46,-11.229 -6.283,-12.032 -8.278,-8.083 z m 10.177,1.679 c 1.359,4.474 6.219,9.372 7.659,7.72 0.512,-0.587 -0.384,-3.668 -1.992,-6.848 -1.607,-3.18 -3.166,-6.323 -3.465,-6.985 -1.329,-2.946 -3.296,2.514 -2.202,6.113 z m 12.849,-4.168 c 0.729,1.259 0.597,2.475 -0.293,2.703 -2.034,0.523 -0.142,4.824 4.637,10.537 2.949,3.527 6.016,5.122 15.337,7.98 6.409,1.964 13.872,3.607 16.585,3.65 3.306,0.053 4.861,0.717 4.714,2.013 -0.147,1.303 2.145,2.333 7.025,3.158 3.984,0.674 6.759,0.464 6.168,-0.467 -0.592,-0.931 -3.414,-1.929 -6.271,-2.218 -7.67,-0.774 -6.54,-2.445 1.484,-2.195 11.317,0.352 4.37,-3.579 -7.814,-4.421 -5.682,-0.393 -15.429,-2.418 -21.659,-4.5 l -11.328,-3.786 -2.816,-7.213 c -1.55,-3.968 -3.4,-7.719 -4.113,-8.337 -1.972,-1.709 -3.157,0.506 -1.656,3.096 z M 65.6913,340.435 c 3.1011,1.908 5.3394,3.813 4.9738,4.232 -1.0654,1.222 -8.7268,-1.814 -12.2243,-4.845 -4.74,-4.107 0.2659,-3.684 7.2505,0.613 z m 17.7475,-17.423 c 1.3168,1.82 0.9414,3.487 -1.3856,6.156 -3.2806,3.763 -4.4078,3.503 -8.2799,-1.915 -2.0142,-2.817 -1.9068,-2.996 2.8841,-4.831 3.646,-1.396 5.4584,-1.239 6.7814,0.59 z m 46.5652,-56.766 c 0.431,3.449 0.614,3.618 2.44,2.251 1.086,-0.813 2.511,-1.012 3.167,-0.444 0.655,0.568 1.28,0.255 1.388,-0.697 0.247,-2.18 -5.406,-7.194 -6.585,-5.841 -0.482,0.552 -0.666,2.682 -0.41,4.731 z m -34.8981,54.971 c 1.7185,2.204 2.7231,4.467 2.2327,5.03 -1.4107,1.618 -9.1552,-2.107 -11.7782,-5.665 l -2.3846,-3.235 4.4029,-0.069 c 3.408,-0.054 5.1085,0.836 7.5272,3.939 z m 50.6711,-66.02 c 2.434,2.949 6.522,5.852 11.589,8.23 4.307,2.02 10.19,5.719 13.075,8.219 4.856,4.207 5.403,5.668 7.374,19.684 1.29,9.171 3.151,16.024 4.72,17.384 2.216,1.92 2.676,1.77 3.182,-1.041 0.326,-1.807 0.045,-3.759 -0.623,-4.338 -0.668,-0.579 -2.231,-7.533 -3.473,-15.454 l -2.258,-14.4 -6.752,-5.002 c -6.807,-5.043 -15.632,-9.428 -19.875,-9.876 -1.406,-0.148 -3.612,-2.107 -5.684,-5.048 -1.863,-2.643 -3.758,-4.38 -4.212,-3.86 -0.453,0.52 0.869,2.996 2.937,5.502 z m 23.304,-30.67 c -1.702,14.243 17.17,30.528 35.98,31.047 7.259,0.2 5.684,-2.673 -2.522,-4.601 -4.346,-1.021 -11.312,-4.32 -16.69,-7.903 -8.22,-5.477 -9.39,-6.688 -10.683,-11.06 -0.799,-2.7 -1.279,-6.946 -1.067,-9.433 0.212,-2.488 -0.386,-4.687 -1.329,-4.887 -2.427,-0.514 -2.919,0.399 -3.689,6.837 z M 70.3438,348.269 c 6.9384,0.335 10.6037,-2.214 10.0102,-6.961 -0.1735,-1.387 1.6931,-4.826 4.1481,-7.643 3.6359,-4.17 5.0233,-4.858 7.4827,-3.71 3.9709,1.855 8.0962,0.387 11.0142,-3.918 1.324,-1.954 5.441,-4.567 9.375,-5.951 3.857,-1.358 10.193,-4.808 14.078,-7.666 8.21,-6.04 14.111,-7.79 17.208,-5.106 1.207,1.045 3.604,1.878 5.328,1.851 3.89,-0.061 11.287,7.99 10.261,11.168 -1.026,3.18 -21.634,14.141 -30.779,16.372 -4.418,1.078 -11.382,1.164 -15.753,0.195 -6.676,-1.481 -7.78,-1.302 -7.466,1.213 0.203,1.623 1.182,3.123 2.176,3.334 2.39,0.506 -3.07,6.678 -9.3359,10.552 -2.6881,1.662 -8.5568,3.265 -13.0422,3.563 -5.4202,0.359 -7.9136,1.201 -7.4356,2.511 0.8141,2.23 -4.2472,6.077 -5.9978,4.56 -0.6269,-0.543 -1.2279,-0.209 -1.3354,0.742 -0.1075,0.952 -0.7178,1.278 -1.3564,0.724 -0.6382,-0.553 -3.2589,0.381 -5.8236,2.076 -2.7625,1.825 -5.1875,2.401 -5.9498,1.413 -0.7652,-0.991 -1.5684,-0.796 -1.9801,0.48 -0.3814,1.181 -2.3915,2.091 -4.4664,2.022 -4.9359,-0.166 -4.4152,-1.464 5.2218,-13.025 7.5477,-9.055 7.6559,-9.121 14.4182,-8.796 z m 72.9502,-72.303 c 2.629,1.672 8.316,5.561 12.636,8.642 7.33,5.226 7.874,5.947 8.123,10.759 0.252,4.895 1.931,8.152 3.358,6.516 0.361,-0.415 0.836,-3.849 1.056,-7.632 0.347,-5.986 -0.217,-7.411 -4.346,-10.989 -4.586,-3.974 -7.363,-2.882 -3.219,1.266 1.054,1.056 -2.415,-1.175 -7.708,-4.956 -5.294,-3.783 -10.763,-6.825 -12.153,-6.761 -1.966,0.09 -1.465,0.792 2.253,3.155 z m -32.374,36.1 c 3.604,-0.434 3.629,-0.376 0.699,1.668 -1.67,1.164 -3.689,2.833 -4.486,3.709 -1.289,1.416 -1.423,1.3 -1.208,-1.046 0.324,-3.524 0.65,-3.807 4.995,-4.331 z m 140.764,-104.82 c 0.236,10.66 -2.178,15.076 -18.452,33.743 -9.763,11.2 -14.378,17.346 -13.212,17.593 0.986,0.208 2.958,-0.91 4.383,-2.486 1.425,-1.576 4.944,-4.077 7.819,-5.558 3.436,-1.77 6.989,-5.2 10.367,-10.009 4.145,-5.9 4.495,-6.955 1.81,-5.452 -1.967,1.101 0.171,-1.707 5.227,-6.866 9.246,-9.434 9.46,-10.072 7.034,-20.98 -2.431,-10.929 -5.22,-10.921 -4.976,0.015 z m -52.2,74.572 c -2.301,4.731 -2.879,16.269 -0.902,17.999 0.883,0.772 1.743,0.882 1.91,0.243 0.168,-0.638 1.315,-5.995 2.55,-11.903 2.244,-10.735 2.25,-10.746 8.67,-14.328 3.534,-1.971 8.456,-5.243 10.939,-7.269 2.483,-2.027 7.183,-5.058 10.445,-6.733 3.262,-1.677 5.867,-3.558 5.789,-4.182 -0.268,-2.142 -9.591,2.125 -21.764,9.963 -12.406,7.987 -14.634,10.035 -17.637,16.21 z m 41.555,-43.441 c 0.088,0.707 -0.682,1.678 -1.712,2.156 -1.139,0.529 -1.202,0.024 -0.161,-1.286 0.942,-1.187 1.785,-1.578 1.873,-0.87 z m 35.383,-28.728 c 2.328,2.017 8.341,-0.145 22.885,-8.229 11.691,-6.499 15.84,-10.486 21.327,-20.494 3.989,-7.275 0.91,-5.89 -7.402,3.329 -10.482,11.626 -14.752,14.637 -26.96,19.015 -12.388,4.443 -12.214,4.33 -9.85,6.379 z m -37.141,74.644 c -0.188,3.754 0.129,7.234 0.704,7.733 1.573,1.363 3.861,-1.894 4.838,-6.889 1.232,-6.297 5.784,-13.91 8.547,-14.295 4.131,-0.575 10.888,-4.883 12.237,-7.802 1.093,-2.365 0.809,-2.871 -1.721,-3.062 -2.671,-0.201 -2.318,-0.91 2.959,-5.941 3.295,-3.142 5.538,-6.106 4.985,-6.586 -0.554,-0.479 -1.669,-0.113 -2.477,0.815 -0.829,0.95 -1.771,0.863 -2.16,-0.202 -0.487,-1.333 -2.092,0.166 -5.475,5.115 -6.823,9.98 -9.414,13.03 -16.141,19.002 -5.296,4.702 -5.992,6.041 -6.296,12.112 z m 36.373,-41.125 c 3.907,3.386 10.974,7.201 11.73,6.333 1.484,-1.703 -2.204,-5.669 -7.263,-7.813 -5.706,-2.417 -8.063,-1.636 -4.467,1.48 z m -55.349,65.989 c -4.544,7.101 -1.104,6.426 7.272,-1.425 5.138,-4.816 5.919,-6.137 4.404,-7.449 -1.556,-1.349 -6.855,0.469 -7.85,2.693 -0.169,0.376 -1.89,3.158 -3.826,6.181 z m -19.933,26.591 c 0.063,0.503 2.756,2.893 5.985,5.311 7.186,5.383 10.947,3.481 4.376,-2.213 -6.089,-5.276 -10.81,-6.688 -10.361,-3.098 z"
       fill="#8f8f8f"
       id="path1-97" /></g><text
     xml:space="preserve"
     style="font-size:19.9155px;line-height:1.25;font-family:Arial;-inkscape-font-specification:Arial;letter-spacing:0px;word-spacing:0px;fill:#000000;stroke-width:0.497889"
     x="331.50574"
     y="-267.87204"
     id="text49"
     transform="rotate(90)"><tspan
       sodipodi:role="line"
       id="tspan49"
       x="331.50574"
       y="-267.87204"
       style="font-style:normal;font-variant:normal;font-weight:bold;font-stretch:normal;line-height:1.25;font-family:Arial;-inkscape-font-specification:'Arial Bold';stroke-width:0.497889">LORILEP.COM</tspan></text><text
     xml:space="preserve"
     style="font-size:19.9155px;line-height:1.25;font-family:Arial;-inkscape-font-specification:Arial;letter-spacing:0px;word-spacing:0px;fill:#000000;stroke-width:0.497889"
     x="354.87772"
     y="-309.66629"
     id="text49-6"
     transform="rotate(86)"><tspan
       sodipodi:role="line"
       id="tspan49-6"
       x="354.87772"
       y="-309.66629"
       style="font-style:normal;font-variant:normal;font-weight:bold;font-stretch:normal;line-height:1.25;font-family:Arial;-inkscape-font-specification:'Arial Bold';stroke-width:0.497889">LORILEP.COM</tspan></text><text
     xml:space="preserve"
     style="font-size:19.9155px;line-height:1.25;font-family:Arial;-inkscape-font-specification:Arial;letter-spacing:0px;word-spacing:0px;fill:#000000;stroke-width:0.497889"
     x="366.27768"
     y="-378.58765"
     id="text49-6-7"
     transform="rotate(85)"><tspan
       sodipodi:role="line"
       id="tspan49-6-2"
       x="366.27768"
       y="-378.58765"
       style="font-style:normal;font-variant:normal;font-weight:bold;font-stretch:normal;line-height:1.25;font-family:Arial;-inkscape-font-specification:'Arial Bold';stroke-width:0.497889">LORILEP.COM</tspan></text><text
     xml:space="preserve"
     style="font-size:19.9155px;line-height:1.25;font-family:Arial;-inkscape-font-specification:Arial;letter-spacing:0px;word-spacing:0px;fill:#000000;stroke-width:0.497889"
     x="389.09424"
     y="-437.21762"
     id="text49-6-7-1"
     transform="rotate(83)"><tspan
       sodipodi:role="line"
       id="tspan49-6-2-3"
       x="389.09424"
       y="-437.21762"
       style="font-style:normal;font-variant:normal;font-weight:bold;font-stretch:normal;line-height:1.25;font-family:Arial;-inkscape-font-specification:'Arial Bold';stroke-width:0.497889">LORILEP.COM</tspan></text><text
     xml:space="preserve"
     style="font-size:19.9155px;line-height:1.25;font-family:Arial;-inkscape-font-specification:Arial;letter-spacing:0px;word-spacing:0px;fill:#000000;stroke-width:0.497889"
     x="331.51654"
     y="-267.84607"
     id="text49-5"
     transform="rotate(90)"><tspan
       sodipodi:role="line"
       id="tspan49-7"
       x="331.51654"
       y="-267.84607"
       style="font-style:normal;font-variant:normal;font-weight:bold;font-stretch:normal;line-height:1.25;font-family:Arial;-inkscape-font-specification:'Arial Bold';stroke-width:0.497889">LORILEP.COM</tspan></text><text
     xml:space="preserve"
     style="font-size:19.9155px;line-height:1.25;font-family:Arial;-inkscape-font-specification:Arial;letter-spacing:0px;word-spacing:0px;fill:#000000;stroke-width:0.497889"
     x="354.88669"
     y="-309.63965"
     id="text49-6-5"
     transform="rotate(86)"><tspan
       sodipodi:role="line"
       id="tspan49-6-5"
       x="354.88669"
       y="-309.63965"
       style="font-style:normal;font-variant:normal;font-weight:bold;font-stretch:normal;line-height:1.25;font-family:Arial;-inkscape-font-specification:'Arial Bold';stroke-width:0.497889">LORILEP.COM</tspan></text><text
     xml:space="preserve"
     style="font-size:19.9155px;line-height:1.25;font-family:Arial;-inkscape-font-specification:Arial;letter-spacing:0px;word-spacing:0px;fill:#000000;stroke-width:0.497889"
     x="366.28613"
     y="-378.56082"
     id="text49-6-7-8"
     transform="rotate(85)"><tspan
       sodipodi:role="line"
       id="tspan49-6-2-2"
       x="366.28613"
       y="-378.56082"
       style="font-style:normal;font-variant:normal;font-weight:bold;font-stretch:normal;line-height:1.25;font-family:Arial;-inkscape-font-specification:'Arial Bold';stroke-width:0.497889">LORILEP.COM</tspan></text><text
     xml:space="preserve"
     style="font-size:19.9155px;line-height:1.25;font-family:Arial;-inkscape-font-specification:Arial;letter-spacing:0px;word-spacing:0px;fill:#000000;stroke-width:0.497889"
     x="389.10178"
     y="-437.19052"
     id="text49-6-7-1-6"
     transform="rotate(83)"><tspan
       sodipodi:role="line"
       id="tspan49-6-2-3-6"
       x="389.10178"
       y="-437.19052"
       style="font-style:normal;font-variant:normal;font-weight:bold;font-stretch:normal;line-height:1.25;font-family:Arial;-inkscape-font-specification:'Arial Bold';stroke-width:0.497889">LORILEP.COM</tspan></text><text
     xml:space="preserve"
     style="font-size:19.9155px;line-height:1.25;font-family:Arial;-inkscape-font-specification:Arial;letter-spacing:0px;word-spacing:0px;fill:#000000;stroke-width:0.497889"
     x="319.38263"
     y="-103.70319"
     id="text49-5-1"
     transform="rotate(98)"><tspan
       sodipodi:role="line"
       id="tspan49-7-0"
       x="319.38263"
       y="-103.70319"
       style="font-style:normal;font-variant:normal;font-weight:bold;font-stretch:normal;line-height:1.25;font-family:Arial;-inkscape-font-specification:'Arial Bold';stroke-width:0.497889">LORILEP.COM</tspan></text><text
     xml:space="preserve"
     style="font-size:19.9155px;line-height:1.25;font-family:Arial;-inkscape-font-specification:Arial;letter-spacing:0px;word-spacing:0px;fill:#000000;stroke-width:0.497889"
     x="312.95471"
     y="-169.61357"
     id="text49-6-5-2"
     transform="rotate(97)"><tspan
       sodipodi:role="line"
       id="tspan49-6-5-0"
       x="312.95471"
       y="-169.61357"
       style="font-style:normal;font-variant:normal;font-weight:bold;font-stretch:normal;line-height:1.25;font-family:Arial;-inkscape-font-specification:'Arial Bold';stroke-width:0.497889">LORILEP.COM</tspan></text><text
     xml:space="preserve"
     style="font-size:19.9155px;line-height:1.25;font-family:Arial;-inkscape-font-specification:Arial;letter-spacing:0px;word-spacing:0px;fill:#000000;stroke-width:0.497889"
     x="312.16504"
     y="-233.25008"
     id="text49-6-7-8-9"
     transform="rotate(95)"><tspan
       sodipodi:role="line"
       id="tspan49-6-2-2-4"
       x="312.16504"
       y="-233.25008"
       style="font-style:normal;font-variant:normal;font-weight:bold;font-stretch:normal;line-height:1.25;font-family:Arial;-inkscape-font-specification:'Arial Bold';stroke-width:0.497889">LORILEP.COM</tspan></text></svg>
